<svg width="47" height="47" viewBox="0 0 47 47" fill="none" xmlns="http://www.w3.org/2000/svg">
<circle cx="23.5" cy="23.5" r="23.5" fill="#BC4747"/>
<path d="M36.1953 21.1935C36.1992 18.9897 35.0173 16.9489 33.0802 15.7589C29.9355 13.8272 25.7126 14.6399 23.6307 17.6121C23.6239 17.6197 23.6154 17.6275 23.6046 17.6348C23.5683 17.6595 23.5204 17.6709 23.4704 17.6634C23.4251 17.6566 23.3915 17.6366 23.3705 17.6134C22.1114 15.7789 19.9481 14.695 17.6523 14.7222C13.9036 14.724 10.8046 17.5877 10.8046 21.1926C10.8046 22.7428 11.5139 24.2582 12.5307 25.6433C13.5518 27.0343 14.9218 28.3466 16.3339 29.5023C19.1592 31.8146 22.2279 33.5599 23.2286 34.111L23.496 34.2583L23.7651 34.1144C24.7705 33.577 27.8397 31.8475 30.6657 29.5387C32.0783 28.3847 33.4486 27.0711 34.47 25.674C35.4872 24.2826 36.1951 22.758 36.1953 21.1935ZM36.1953 21.1935L35.6328 21.1925M36.1953 21.1935C36.1953 21.1932 36.1953 21.1929 36.1953 21.1925L35.6328 21.1925M35.6328 21.1925C35.6329 26.7793 25.4822 32.5587 23.5 33.6183L22.919 17.9497C23.1517 18.2511 23.6005 18.3183 23.9214 18.0996C23.9827 18.0578 24.0366 18.0073 24.081 17.9497C25.9817 15.2189 29.879 14.4526 32.7858 16.2382C34.5653 17.3314 35.6364 19.1951 35.6328 21.1925ZM29.3415 14.563H29.3443C33.2954 14.563 36.4375 17.5637 36.4375 21.1926C36.4375 22.7475 35.723 24.3334 34.5664 25.8731C33.4134 27.4079 31.8579 28.8474 30.2658 30.0975C27.0819 32.5974 23.8293 34.2797 23.5898 34.3997L23.5656 34.4118L23.5428 34.4262C23.5186 34.4413 23.4813 34.4412 23.4573 34.4262L23.4344 34.4118L23.4102 34.3997C23.1737 34.2812 19.9204 32.5749 16.7353 30.0622C15.1426 28.8058 13.5866 27.3629 12.4332 25.8319C11.2755 24.2952 10.5625 22.7218 10.5625 21.1926C10.5625 17.5637 13.7046 14.563 17.6557 14.563V14.563L17.6619 14.563C19.7609 14.5397 21.7496 15.4075 23.0787 16.9097L23.4972 17.3828L23.9188 16.9124C25.2579 15.4185 27.2433 14.5525 29.3415 14.563Z" fill="white" stroke="white" stroke-width="1.125"/>
<ellipse cx="18.1057" cy="21.8749" rx="7.21023" ry="7.62224" fill="white"/>
<ellipse cx="29.23" cy="21.8749" rx="7.21023" ry="7.62224" fill="white"/>
<path d="M23.8457 35.0593L15.0156 28.5995L23.8457 25.9951L32.5261 28.5995L23.8457 35.0593Z" fill="white"/>
</svg>
